<?xml version="1.0" encoding="iso-8859-1"?>
<!-- Generator: Adobe Illustrator 18.0.0, SVG Export Plug-In . SVG Version: 6.00 Build 0)  -->
<!DOCTYPE svg PUBLIC "-//W3C//DTD SVG 1.1//EN" "http://www.w3.org/Graphics/SVG/1.1/DTD/svg11.dtd">
<svg version="1.1" id="Capa_1" xmlns="http://www.w3.org/2000/svg" xmlns:xlink="http://www.w3.org/1999/xlink" x="0px" y="0px"
	 viewBox="0 0 206.797 206.797" style="enable-background:new 0 0 206.797 206.797;" xml:space="preserve">
<path d="M79.756,194.17L0,206.797l12.626-79.756l79.311-60.837l20.792,20.792l-38.911,38.911c-5.303-2.428-11.774-1.477-16.141,2.89
	c-5.614,5.614-5.614,14.711-0.001,20.323c5.613,5.612,14.71,5.612,20.323,0c4.367-4.367,5.319-10.837,2.89-16.142l38.911-38.911
	l20.792,20.792L79.756,194.17z M132.233,21.822l-5.076-5.076l-32.179,32.18l62.893,62.893l32.18-32.179l-5.077-5.077l21.823-17.903
	L150.134,0L132.233,21.822z"/>
<g>
</g>
<g>
</g>
<g>
</g>
<g>
</g>
<g>
</g>
<g>
</g>
<g>
</g>
<g>
</g>
<g>
</g>
<g>
</g>
<g>
</g>
<g>
</g>
<g>
</g>
<g>
</g>
<g>
</g>
</svg>
